# xmcd CD database file
#
# Track frame offsets:
#	187
#	24085
#	43220
#	65780
#	84917
#	110347
#	129097
#	146755
#	163872
#	182512
#
# Disc length: 2678 seconds
#
# Revision: 0
# Processed by: cddbd v1.5PL3 Copyright (c) Steve Scherf et al.
# Submitted via: CDex 1.50beta8
#
DISCID=7f0a740a
DTITLE=金子美香 - Flowerbeat
DYEAR=1989
DGENRE=JPop
TTITLE0=週末のソルジャー
TTITLE1=ボーイ・フレンド
TTITLE2=ガラスの街角で
TTITLE3=どうして
TTITLE4=HIROKO
TTITLE5=ビッグ・シティ・フィッシュ
TTITLE6=好き
TTITLE7=レヴォリューション #3
TTITLE8=僕たちのリーズン
TTITLE9=フラワーズ
EXTD=YEAR: 1989
EXTT0=
EXTT1=
EXTT2=
EXTT3=
EXTT4=
EXTT5=
EXTT6=
EXTT7=
EXTT8=
EXTT9=
PLAYORDER=
